HIERARCHY
ROOT Hips
{
	OFFSET	0	0	0
	CHANNELS 6  Xposition Yposition Zposition Xrotation Yrotation Zrotation
	JOINT Spine
	{
		OFFSET	0	7.36801	1.47921
		CHANNELS 3  Xrotation Yrotation Zrotation
		JOINT Spine1
		{
			OFFSET	0	12.6146	-2.2526
			CHANNELS 3  Xrotation Yrotation Zrotation
			JOINT Spine2
			{
				OFFSET	0	9.56229	1.02493
				CHANNELS 3  Xrotation Yrotation Zrotation
				JOINT Spine3
				{
					OFFSET	0	11.4432	3.40143
					CHANNELS 3  Xrotation Yrotation Zrotation
					JOINT Spine4
					{
						OFFSET	0	16.9396	-1.7345
						CHANNELS 3  Xrotation Yrotation Zrotation
						JOINT Neck
						{
							OFFSET	0	8.08684	-5.66529
							CHANNELS 3  Xrotation Yrotation Zrotation
							JOINT Head
							{
								OFFSET	0	9.70872	-2.90586
								CHANNELS 3  Xrotation Yrotation Zrotation
								End Site
								{
									OFFSET	0	20.2509	-0.979882
								}
							}
						}
					}
					JOINT LeftShoulder
					{
						OFFSET	-4.86562	20.5888	-9.70871
						CHANNELS 3  Xrotation Yrotation Zrotation
						JOINT LeftArm
						{
							OFFSET	-10.6038	-2.90585	3.72808
							CHANNELS 3  Xrotation Yrotation Zrotation
							JOINT LeftForeArm
							{
								OFFSET	-30.8337	-1.4073	2.20088
								CHANNELS 3  Xrotation Yrotation Zrotation
								JOINT LeftHand
								{
									OFFSET	-25.1332	-1.73684	1.79398
									CHANNELS 3  Xrotation Yrotation Zrotation
									End Site
									{
										OFFSET	-9.17235	-0.633862	0.65467
									}
								}
							}
						}
					}
					JOINT RightShoulder
					{
						OFFSET	4.86562	20.5888	-9.70871
						CHANNELS 3  Xrotation Yrotation Zrotation
						JOINT RightArm
						{
							OFFSET	10.6038	-2.90585	3.72808
							CHANNELS 3  Xrotation Yrotation Zrotation
							JOINT RightForeArm
							{
								OFFSET	30.8337	-1.4073	2.20088
								CHANNELS 3  Xrotation Yrotation Zrotation
								JOINT RightHand
								{
									OFFSET	25.1332	-1.73684	1.79398
									CHANNELS 3  Xrotation Yrotation Zrotation
									End Site
									{
										OFFSET	9.17235	-0.633862	0.65467
									}
								}
							}
						}
					}
				}
			}
		}
	}
	JOINT LeftUpLeg
	{
		OFFSET	-10.0134	-3.684	-0.739604
		CHANNELS 3  Xrotation Yrotation Zrotation
		JOINT LeftLeg
		{
			OFFSET	-2.30148	-45.0967	-0.70496
			CHANNELS 3  Xrotation Yrotation Zrotation
			JOINT LeftFoot
			{
				OFFSET	-2.24997	-41.4741	3.56677
				CHANNELS 3  Xrotation Yrotation Zrotation
				JOINT LeftToeBase
				{
					OFFSET	0	-5.07523	-13.4798
					CHANNELS 3  Xrotation Yrotation Zrotation
					End Site
					{
						OFFSET	0	-2.03009	-8.12037
					}
				}
			}
		}
	}
	JOINT RightUpLeg
	{
		OFFSET	10.0134	-3.684	-0.739604
		CHANNELS 3  Xrotation Yrotation Zrotation
		JOINT RightLeg
		{
			OFFSET	2.30148	-45.0967	-0.70496
			CHANNELS 3  Xrotation Yrotation Zrotation
			JOINT RightFoot
			{
				OFFSET	2.24997	-41.4741	3.56677
				CHANNELS 3  Xrotation Yrotation Zrotation
				JOINT RightToeBase
				{
					OFFSET	0	-5.07523	-13.4798
					CHANNELS 3  Xrotation Yrotation Zrotation
					End Site
					{
						OFFSET	0	-2.03009	-8.12037
					}
				}
			}
		}
	}
}
MOTION
Frames: 17
Frame Time: 0.020408
 0 -12.0709 2.70641 -0 0 -0 -0 0 -0 -0 0 -0 -0 0 -0 -0 0 -0 -0 0 -0 -0 0 -0 -0 0 -0 -0 0 -0 -0 0 -0 -0 0 -0 -0 0 -0 -0 0 -0 -0 0 -0 -0 0 -0 -0 0 -0 -0 0 -0 -0 0 -0 -0 0 -0 -0 0 -0 -0 0 -0 -0 0 -0 -0 0 -0 -0 0 -0
 -250.501 93.1968 262.38 2.05579 -7.82755 25.8991 0.00100764 0.00663319 -8.63767 172.047 179.987 165.604 170.611 179.961 165.604 170.368 179.993 171.362 7.4375 -0.373008 -2.85498 25.2632 7.13842 21.4053 9.82605 -28.4263 9.07357 1.42113 -21.1387 3.0696 33.715 -16.6694 47.0735 1.05212 -120.723 -0.827607 -0 -12.6611 40.784 1.52033 28.6516 -3.30281 30.7912 64.9175 -61.6295 128.253 128.036 -133.1 -0 43.1901 0.504853 15.8363 -29.756 -8.31647 129.467 -168.85 -179.965 21.4442 -0.0329328 -0.558425 179.945 180 -180 5.33638 15.9232 -18.9866 11.5431 -16.9678 -0.63562 166.382 -179.982 168.522 1.16008 0 0
 -250.48 93.2041 262.328 2.07636 -7.67111 25.8792 0.00093274 0.00612853 -8.65379 172.035 179.988 165.577 170.599 179.964 165.577 170.362 179.994 171.346 7.42927 -0.373295 -2.86036 25.2363 7.03842 21.5437 9.85296 -28.7549 9.13495 1.44733 -21.7527 3.12973 33.416 -16.0762 46.7166 1.23932 -121.333 -0.698711 -0 -12.6744 41.1311 1.54232 28.6784 -3.35058 30.2244 64.8572 -60.891 127.526 128.075 -132.367 -0 43.0504 0.403524 15.8247 -29.8319 -8.30513 129.499 -168.949 179.97 21.4322 -0.0174998 -0.550548 179.945 180 -180 5.3004 16.0511 -18.9398 11.5549 -17.2398 -0.678719 166.384 -179.983 168.529 1.19617 0 0
 -250.48 93.2065 262.262 2.13182 -7.56091 25.8601 0.000430425 0.00282501 -8.66309 172.019 179.994 165.562 170.581 179.983 165.562 170.354 179.997 171.337 7.42204 -0.373335 -2.86348 25.2136 6.9525 21.6717 9.87895 -29.0534 9.19277 1.47374 -22.4067 3.19026 33.0531 -15.5561 46.1974 1.47074 -121.808 -0.548763 -0 -12.6621 41.5076 1.5463 28.6613 -3.35925 30.196 64.9199 -60.6857 126.91 128.146 -131.75 -0 42.9248 0.330447 15.7968 -29.9452 -8.25635 129.539 -169.217 179.932 21.4092 -0.0159168 -0.511939 179.945 180 -180 5.16724 16.1816 -18.867 11.6037 -17.5873 -0.718993 166.422 179.994 168.53 1.23637 0 0
 -250.498 93.2087 262.238 2.18717 -7.41892 25.8481 0.000367212 0.00240626 -8.67679 172.015 179.995 165.539 170.578 179.986 165.539 170.357 179.998 171.323 7.40726 -0.373186 -2.86811 25.1577 6.85018 21.8254 9.89904 -29.3949 9.25623 1.49088 -23.2976 3.23138 32.7355 -15.1349 45.8147 1.67501 -122.366 -0.401424 -0 -12.6381 41.9444 1.55989 28.6437 -3.38884 29.5954 64.8527 -60.1446 126.39 128.242 -131.169 -0 42.8439 0.283451 15.7384 -30.0345 -8.18716 129.559 -169.44 179.954 21.345 -0.0281332 -0.481134 179.945 180 -180 4.98023 16.3148 -18.803 11.583 -18.0552 -0.671794 166.618 179.988 168.52 1.27306 0 0
 -250.557 93.2075 262.128 2.26349 -7.37962 25.8514 180 -180 171.306 172.007 -180 165.511 170.567 -179.999 165.511 170.352 -180 171.306 7.40369 -0.373728 -2.87367 25.1409 6.75513 21.9567 9.92921 -29.7113 9.31735 1.50089 -24.0642 3.2559 32.4688 -14.724 45.4437 1.85944 -122.834 -0.260989 -0 -12.6093 42.3356 1.56855 28.6595 -3.40765 29.0196 64.7833 -59.6736 125.892 128.332 -130.634 -0 42.7452 0.238958 15.6931 -30.1255 -8.13428 129.594 -169.645 179.954 21.3109 -0.0218976 -0.453301 179.945 180 -180 4.81528 16.4271 -18.7365 11.5872 -18.2724 -0.671407 166.774 179.974 168.51 1.30557 0 0
 -250.631 93.2049 262.008 2.33548 -7.4591 25.8646 0.000811077 0.00529546 -8.70802 171.999 179.99 165.487 170.566 179.969 165.487 170.349 179.995 171.292 7.39251 -0.373789 -2.87853 25.1084 6.66717 22.0745 9.94961 -29.9881 9.36839 1.51583 -24.8702 3.2907 32.2318 -14.2664 45.0385 2.10594 -123.215 -0.0678047 -0 -12.5481 42.7225 1.56462 28.6525 -3.39911 28.6986 64.7656 -59.4854 125.43 128.409 -130.165 -0 42.6357 0.208979 15.6362 -30.1894 -8.06809 129.625 -169.818 179.97 21.283 -0.0180469 -0.43181 179.945 180 -180 4.66354 16.453 -18.666 11.5845 -17.5587 -0.720413 166.794 -179.952 168.523 1.33479 0 0
 -250.741 93.218 262.021 2.35412 -7.47599 25.8363 0.00123934 0.00807898 -8.72138 171.993 179.984 165.464 170.563 179.953 165.464 170.347 179.992 171.279 7.38454 -0.373963 -2.883 25.0804 6.56027 22.214 9.97849 -30.3243 9.43145 1.53343 -25.7253 3.33074 31.9898 -13.8067 44.5102 2.3837 -123.553 0.179898 -0 -12.4644 43.1114 1.5303 28.6598 -3.32447 28.623 64.6828 -59.3044 125.052 128.536 -129.889 -0 42.5126 0.206851 15.6028 -30.2103 -7.95398 129.737 -169.948 -179.973 21.2158 -0.0308658 -0.417124 179.945 180 -180 4.54078 16.5108 -18.5971 11.5854 -16.7108 -0.746166 166.798 -179.916 168.576 1.35971 0 0
 -250.802 93.2254 262.036 2.38726 -7.43309 25.8084 0.000535824 0.00348583 -8.73881 171.982 179.993 165.435 170.548 179.98 165.435 170.34 179.997 171.261 7.38403 -0.374686 -2.88876 25.0457 6.47587 22.4417 10.029 -30.79 9.54164 1.56514 -26.4204 3.40062 31.8639 -13.1518 43.9919 2.67478 -123.927 0.452774 -0 -12.3605 43.4813 1.5346 28.6974 -3.33378 28.4608 64.6091 -59.0769 124.681 128.699 -129.603 -0 42.3608 0.173971 15.5567 -30.2262 -7.8408 129.787 -169.976 -179.922 21.1737 -0.0322742 -0.405244 179.945 180 -180 4.45583 16.538 -18.56 11.604 -15.9521 -0.783802 166.805 -179.917 168.615 1.40957 0 0
 -250.858 93.2252 262.021 2.43649 -7.42198 25.7481 0.000761342 0.00494794 -8.74752 171.977 179.99 165.421 170.544 179.971 165.421 170.337 179.995 171.252 7.37991 -0.374852 -2.89167 25.0222 6.34726 22.6227 10.0732 -31.223 9.6283 1.58097 -27.0006 3.43544 31.7945 -12.5052 43.5256 2.94215 -124.271 0.723567 -0 -12.2614 43.8229 1.54565 28.7006 -3.3578 28.2122 64.573 -58.838 124.346 128.858 -129.29 -0 42.2538 0.135673 15.5199 -30.2261 -7.7125 129.815 -169.999 -179.921 21.1498 -0.0223799 -0.391511 179.945 180 -180 4.3631 16.5314 -18.4806 11.5504 -15.2559 -0.804726 166.996 -179.927 168.605 1.45231 0 0
 -250.917 93.2275 262.034 2.45599 -7.33137 25.7015 0.000891853 0.00578744 -8.76046 171.969 179.989 165.399 170.538 179.966 165.399 170.333 179.994 171.24 7.37335 -0.375076 -2.89599 24.9921 6.24169 22.7907 10.1111 -31.6065 9.70799 1.58189 -27.4714 3.43751 31.6927 -11.7713 43.1455 3.23422 -124.591 0.973744 -0 -12.1384 44.1852 1.54566 28.7071 -3.35781 27.9714 64.5451 -58.543 124.15 129.105 -129.157 -0 42.1674 0.0886666 15.5005 -30.2598 -7.61878 129.837 -169.994 -179.907 21.1252 -0.0167376 -0.382747 179.945 180 -180 4.26034 16.5259 -18.4159 11.5021 -14.3889 -0.796939 167.18 -179.917 168.541 1.48958 0 0
 -251.002 93.2304 262.03 2.45413 -7.16423 25.6721 0.00068308 0.00442324 -8.77883 171.959 179.991 165.369 170.523 179.974 165.369 170.318 179.996 171.221 7.38951 -0.376682 -2.90195 25.0278 6.14668 22.95 10.1744 -32.0004 9.79981 1.57949 -27.9834 3.43212 31.7495 -11.0434 42.7973 3.45463 -125.056 1.17056 -0 -12.006 44.5134 1.53614 28.6466 -3.3372 27.9084 64.5666 -58.4276 123.768 129.229 -128.786 -0 42.1413 0.0693578 15.4943 -30.3044 -7.5183 129.851 -169.99 -179.912 21.0992 -0.0103329 -0.364989 179.945 180 -180 4.0723 16.5419 -18.3343 11.5225 -13.6453 -0.76128 167.366 -179.901 168.537 1.52142 0 0
 -251.045 93.2289 262.044 2.47043 -7.05009 25.6402 0.00134791 0.00871714 -8.78988 171.954 179.983 165.35 170.523 179.949 165.35 170.314 179.991 171.21 7.38699 -0.377029 -2.90562 25.0136 6.04839 23.0916 10.2125 -32.3386 9.87039 1.56141 -28.6399 3.39214 31.7755 -10.3812 42.5552 3.72661 -125.386 1.38341 -0 -11.8433 44.853 1.53503 28.607 -3.33483 27.8349 64.5812 -58.309 123.367 129.36 -128.397 -0 42.1304 0.0337652 15.4648 -30.3417 -7.42465 129.861 -169.997 -179.915 21.0871 -0.0054009 -0.349639 179.945 180 -180 3.88078 16.583 -18.2473 11.5326 -12.9595 -0.726336 167.571 -179.902 168.539 1.54858 0 0
 -251.082 93.2273 261.976 2.48809 -6.98917 25.648 0.0010169 0.00656206 -8.80888 171.948 179.987 165.319 170.515 179.961 165.319 170.311 179.993 171.191 7.38505 -0.377747 -2.91191 24.9981 5.9433 23.2431 10.2537 -32.7001 9.94639 1.53314 -28.7239 3.33056 31.7689 -9.94121 42.8378 4.08587 -125.511 1.6569 -0 -11.6236 45.2402 1.54819 28.6825 -3.36335 27.3185 64.5273 -57.8013 122.91 129.407 -127.925 -0 42.1701 0.079393 15.3872 -30.4385 -7.33121 129.873 -170.007 -179.939 21.1067 0.0145971 -0.336308 179.945 180 -180 3.80646 16.646 -18.2004 11.5547 -12.3565 -0.733223 167.617 -179.915 168.545 1.57185 0 0
 -251.099 93.2255 261.896 2.47302 -6.89949 25.6116 0.000805611 0.00519646 -8.81245 171.938 179.99 165.313 170.504 179.969 165.313 170.307 179.995 171.188 7.37803 -0.377543 -2.91314 24.9794 5.84098 23.3665 10.2857 -33.0076 10.0066 1.50286 -28.7326 3.26473 31.853 -9.51231 43.1567 4.42184 -125.599 1.88963 -0 -11.4124 45.5901 1.56469 28.7369 -3.39915 26.822 64.4473 -57.3014 122.564 129.509 -127.591 -0 42.2328 0.113104 15.3788 -30.4973 -7.17403 129.9 -169.999 -179.95 21.0932 0.00739844 -0.327518 179.945 180 -180 3.78538 16.6484 -18.1542 11.5584 -11.8738 -0.698815 167.666 -179.937 168.547 1.59127 0 0
 -251.199 93.2279 261.888 2.56083 -6.8258 25.602 0.000490236 0.0031535 -8.83634 171.928 179.994 165.273 170.49 179.981 165.273 170.295 179.997 171.164 7.38619 -0.378985 -2.92099 24.9939 5.79191 23.4791 10.3274 -33.2619 10.0714 1.49577 -28.7135 3.24933 32.1631 -9.12277 43.5049 4.69028 -125.828 2.17706 -0 -11.2146 45.88 1.54753 28.7144 -3.36187 26.5069 64.3587 -56.9258 122.14 129.56 -127.163 -0 42.2979 0.167843 15.2732 -30.5742 -7.08431 129.9 -169.992 179.927 21.0824 0.00507595 -0.305716 179.945 180 -180 3.68736 16.6561 -18.1814 11.584 -11.5146 -0.608245 167.586 -179.971 168.532 1.60728 0 0
 -251.272 93.2286 261.914 2.62667 -6.78941 25.6356 0.000423038 0.00271575 -8.85394 171.915 179.995 165.243 170.477 179.984 165.243 170.286 179.997 171.146 7.38353 -0.379605 -2.92682 24.9989 5.69637 23.5699 10.3601 -33.5179 10.1202 1.51438 -28.7041 3.28981 32.5688 -8.70852 43.7683 4.92261 -126.082 2.40066 -0 -11.0244 46.1638 1.54173 28.7297 -3.34924 26.2493 64.2437 -56.5955 121.751 129.611 -126.765 -0 42.3796 0.243717 15.1906 -30.6766 -7.00403 129.895 -169.989 179.905 21.0357 0.00390695 -0.290778 179.945 180 -180 3.59253 16.6585 -18.1784 11.6011 -11.3005 -0.514093 167.411 -179.969 168.683 1.62091 0 0
